<svg width="80" height="80" viewBox="0 0 80 80" fill="none" xmlns="http://www.w3.org/2000/svg">
<path d="M0 12.8C0 8.31958 0 6.07937 0.871948 4.36808C1.63893 2.86278 2.86278 1.63893 4.36808 0.871948C6.07937 0 8.31958 0 12.8 0H67.2C71.6804 0 73.9206 0 75.6319 0.871948C77.1372 1.63893 78.3611 2.86278 79.1281 4.36808C80 6.07937 80 8.31958 80 12.8V67.2C80 71.6804 80 73.9206 79.1281 75.6319C78.3611 77.1372 77.1372 78.3611 75.6319 79.1281C73.9206 80 71.6804 80 67.2 80H12.8C8.31958 80 6.07937 80 4.36808 79.1281C2.86278 78.3611 1.63893 77.1372 0.871948 75.6319C0 73.9206 0 71.6804 0 67.2V12.8Z" fill="black"/>
<path d="M40.0097 59.3214L25.266 44.3416L23.1827 35.9296L25.266 26.7647H27.1097V33.9825H31.1174L28.4235 38.3576L40.0097 53.6439L51.6352 38.3576L48.7772 33.9825H52.7417V26.7647H54.7062L57.2371 35.9296L54.7062 44.3416L40.0097 59.3214Z" fill="white"/>
<path d="M40.0097 49.0956L32.4388 38.3576L37.0407 30.4089H32.4388L26.1277 21.4342L31.1174 18.1364H48.7772L53.4103 21.4342L47.1479 30.4089H42.6945L47.1479 38.3576L40.0097 49.0956Z" fill="white"/>
<path d="M59.3047 21.4342L48.7772 14.8164H31.1174L20.5832 21.4342L20.7147 32.3343L20.5832 44.3416L39.9799 63.8666L59.4362 44.3416V32.3343L59.3047 21.4342ZM62.5 45.5221L39.9761 68.125L17.5067 45.5072L17.6512 32.3327L17.5 19.8551L30.2041 11.875H49.6903L62.3488 19.8316L62.4989 32.3006L62.5 32.3177V45.5221Z" fill="white"/>
<path d="M38.6444 34.7513L39.9684 30.8169L41.3759 34.7513L39.9684 38.6858L38.6444 34.7513Z" fill="black"/>
</svg>
